<?xml version="1.0" encoding="UTF-8"?>
<svg xmlns="http://www.w3.org/2000/svg" xmlns:xlink="http://www.w3.org/1999/xlink" width="50px" height="19px" viewBox="0 0 51 19" version="1.1">
<defs>
<clipPath id="clip1">
  <path d="M 33 1 L 45 1 L 45 12 L 33 12 Z M 33 1 "/>
</clipPath>
<clipPath id="clip2">
  <path d="M 43.402344 2.773438 C 41.816406 0.65625 38.457031 0.515625 35.898438 2.453125 C 33.339844 4.390625 32.550781 7.675781 34.136719 9.789062 C 35.722656 11.90625 39.082031 12.046875 41.640625 10.109375 C 44.199219 8.171875 44.988281 4.886719 43.402344 2.773438 Z M 43.402344 2.773438 "/>
</clipPath>
<clipPath id="clip3">
  <path d="M 27.609375 5.234375 L 40.835938 -4.78125 L 49.984375 7.421875 L 36.761719 17.433594 Z M 27.609375 5.234375 "/>
</clipPath>
<clipPath id="clip4">
  <path d="M 43.402344 2.773438 C 41.816406 0.65625 38.457031 0.515625 35.898438 2.453125 C 33.339844 4.390625 32.550781 7.675781 34.136719 9.789062 C 35.722656 11.90625 39.082031 12.046875 41.640625 10.109375 C 44.199219 8.171875 44.988281 4.886719 43.402344 2.773438 Z M 43.402344 2.773438 "/>
</clipPath>
<clipPath id="clip5">
  <path d="M 31.292969 6.046875 L 40.554688 -0.964844 L 46.300781 6.699219 L 37.039062 13.710938 Z M 31.292969 6.046875 "/>
</clipPath>
<clipPath id="clip6">
  <path d="M 33 1 L 45 1 L 45 12 L 33 12 Z M 33 1 "/>
</clipPath>
<clipPath id="clip7">
  <path d="M 43.402344 2.773438 C 41.816406 0.65625 38.457031 0.515625 35.898438 2.453125 C 33.339844 4.390625 32.550781 7.675781 34.136719 9.789062 C 35.722656 11.90625 39.082031 12.046875 41.640625 10.109375 C 44.199219 8.171875 44.988281 4.886719 43.402344 2.773438 Z M 43.402344 2.773438 "/>
</clipPath>
<clipPath id="clip8">
  <path d="M 27.609375 5.234375 L 40.835938 -4.78125 L 49.984375 7.421875 L 36.761719 17.433594 Z M 27.609375 5.234375 "/>
</clipPath>
<clipPath id="clip9">
  <path d="M 43.402344 2.773438 C 41.816406 0.65625 38.457031 0.515625 35.898438 2.453125 C 33.339844 4.390625 32.550781 7.675781 34.136719 9.789062 C 35.722656 11.90625 39.082031 12.046875 41.640625 10.109375 C 44.199219 8.171875 44.988281 4.886719 43.402344 2.773438 Z M 43.402344 2.773438 "/>
</clipPath>
<clipPath id="clip10">
  <path d="M 32.613281 10.652344 L 35.808594 -0.550781 L 44.988281 2.09375 L 41.792969 13.296875 Z M 32.613281 10.652344 "/>
</clipPath>
<clipPath id="clip11">
  <path d="M 33 1 L 45 1 L 45 12 L 33 12 Z M 33 1 "/>
</clipPath>
<clipPath id="clip12">
  <path d="M 43.402344 2.773438 C 41.816406 0.65625 38.457031 0.515625 35.898438 2.453125 C 33.339844 4.390625 32.550781 7.675781 34.136719 9.789062 C 35.722656 11.90625 39.082031 12.046875 41.640625 10.109375 C 44.199219 8.171875 44.988281 4.886719 43.402344 2.773438 Z M 43.402344 2.773438 "/>
</clipPath>
<clipPath id="clip13">
  <path d="M 27.609375 5.234375 L 40.835938 -4.78125 L 49.984375 7.421875 L 36.761719 17.433594 Z M 27.609375 5.234375 "/>
</clipPath>
<clipPath id="clip14">
  <path d="M 43.402344 2.773438 C 41.816406 0.65625 38.457031 0.515625 35.898438 2.453125 C 33.339844 4.390625 32.550781 7.675781 34.136719 9.789062 C 35.722656 11.90625 39.082031 12.046875 41.640625 10.109375 C 44.199219 8.171875 44.988281 4.886719 43.402344 2.773438 Z M 43.402344 2.773438 "/>
</clipPath>
<clipPath id="clip15">
  <path d="M 31.292969 6.046875 L 40.554688 -0.964844 L 46.300781 6.699219 L 37.039062 13.710938 Z M 31.292969 6.046875 "/>
</clipPath>
<clipPath id="clip16">
  <path d="M 33 1 L 45 1 L 45 12 L 33 12 Z M 33 1 "/>
</clipPath>
<clipPath id="clip17">
  <path d="M 43.402344 2.773438 C 41.816406 0.65625 38.457031 0.515625 35.898438 2.453125 C 33.339844 4.390625 32.550781 7.675781 34.136719 9.789062 C 35.722656 11.90625 39.082031 12.046875 41.640625 10.109375 C 44.199219 8.171875 44.988281 4.886719 43.402344 2.773438 Z M 43.402344 2.773438 "/>
</clipPath>
<clipPath id="clip18">
  <path d="M 27.609375 5.234375 L 40.835938 -4.78125 L 49.984375 7.421875 L 36.761719 17.433594 Z M 27.609375 5.234375 "/>
</clipPath>
<clipPath id="clip19">
  <path d="M 43.402344 2.773438 C 41.816406 0.65625 38.457031 0.515625 35.898438 2.453125 C 33.339844 4.390625 32.550781 7.675781 34.136719 9.789062 C 35.722656 11.90625 39.082031 12.046875 41.640625 10.109375 C 44.199219 8.171875 44.988281 4.886719 43.402344 2.773438 Z M 43.402344 2.773438 "/>
</clipPath>
<clipPath id="clip20">
  <path d="M 32.613281 10.652344 L 35.808594 -0.550781 L 44.988281 2.09375 L 41.792969 13.296875 Z M 32.613281 10.652344 "/>
</clipPath>
<clipPath id="clip21">
  <path d="M 33 1 L 45 1 L 45 12 L 33 12 Z M 33 1 "/>
</clipPath>
<clipPath id="clip22">
  <path d="M 43.402344 2.773438 C 41.816406 0.65625 38.457031 0.515625 35.898438 2.453125 C 33.339844 4.390625 32.550781 7.675781 34.136719 9.789062 C 35.722656 11.90625 39.082031 12.046875 41.640625 10.109375 C 44.199219 8.171875 44.988281 4.886719 43.402344 2.773438 Z M 43.402344 2.773438 "/>
</clipPath>
<clipPath id="clip23">
  <path d="M 27.609375 5.234375 L 40.835938 -4.78125 L 49.984375 7.421875 L 36.761719 17.433594 Z M 27.609375 5.234375 "/>
</clipPath>
<clipPath id="clip24">
  <path d="M 43.402344 2.773438 C 41.816406 0.65625 38.457031 0.515625 35.898438 2.453125 C 33.339844 4.390625 32.550781 7.675781 34.136719 9.789062 C 35.722656 11.90625 39.082031 12.046875 41.640625 10.109375 C 44.199219 8.171875 44.988281 4.886719 43.402344 2.773438 Z M 43.402344 2.773438 "/>
</clipPath>
<clipPath id="clip25">
  <path d="M 33 1 L 45 1 L 45 12 L 33 12 Z M 33 1 "/>
</clipPath>
<clipPath id="clip26">
  <path d="M 43.402344 2.773438 C 41.816406 0.65625 38.457031 0.515625 35.898438 2.453125 C 33.339844 4.390625 32.550781 7.675781 34.136719 9.789062 C 35.722656 11.90625 39.082031 12.046875 41.640625 10.109375 C 44.199219 8.171875 44.988281 4.886719 43.402344 2.773438 Z M 43.402344 2.773438 "/>
</clipPath>
<clipPath id="clip27">
  <path d="M 27.609375 5.234375 L 40.835938 -4.78125 L 49.984375 7.421875 L 36.761719 17.433594 Z M 27.609375 5.234375 "/>
</clipPath>
<clipPath id="clip28">
  <path d="M 36 3 L 42 3 L 42 10 L 36 10 Z M 36 3 "/>
</clipPath>
<clipPath id="clip29">
  <path d="M 43.402344 2.773438 C 41.816406 0.65625 38.457031 0.515625 35.898438 2.453125 C 33.339844 4.390625 32.550781 7.675781 34.136719 9.789062 C 35.722656 11.90625 39.082031 12.046875 41.640625 10.109375 C 44.199219 8.171875 44.988281 4.886719 43.402344 2.773438 Z M 43.402344 2.773438 "/>
</clipPath>
<clipPath id="clip30">
  <path d="M 27.609375 5.234375 L 40.835938 -4.78125 L 49.984375 7.421875 L 36.761719 17.433594 Z M 27.609375 5.234375 "/>
</clipPath>
</defs>
<g id="surface1">
<path style=" stroke:none;fill-rule:nonzero;fill:rgb(0%,0%,0%);fill-opacity:1;" d="M 26.328125 6.292969 L 28.75 6.136719 C 28.804688 6.535156 28.90625 6.828125 29.074219 7.042969 C 29.339844 7.375 29.707031 7.542969 30.195312 7.542969 C 30.554688 7.542969 30.839844 7.460938 31.035156 7.285156 C 31.21875 7.144531 31.328125 6.921875 31.328125 6.691406 C 31.328125 6.46875 31.226562 6.257812 31.054688 6.117188 C 30.867188 5.949219 30.4375 5.785156 29.753906 5.636719 C 28.640625 5.386719 27.839844 5.054688 27.371094 4.628906 C 26.898438 4.230469 26.632812 3.644531 26.652344 3.027344 C 26.652344 2.601562 26.78125 2.175781 27.019531 1.824219 C 27.296875 1.425781 27.671875 1.109375 28.125 0.933594 C 28.613281 0.722656 29.292969 0.609375 30.152344 0.609375 C 31.199219 0.609375 32 0.804688 32.554688 1.203125 C 33.105469 1.59375 33.4375 2.222656 33.539062 3.082031 L 31.144531 3.21875 C 31.082031 2.851562 30.953125 2.582031 30.738281 2.40625 C 30.527344 2.230469 30.25 2.148438 29.894531 2.148438 C 29.597656 2.148438 29.378906 2.210938 29.230469 2.332031 C 29.089844 2.441406 29 2.609375 29.007812 2.796875 C 29.007812 2.933594 29.082031 3.0625 29.191406 3.148438 C 29.3125 3.257812 29.597656 3.359375 30.050781 3.453125 C 31.164062 3.691406 31.957031 3.933594 32.445312 4.183594 C 32.929688 4.433594 33.28125 4.738281 33.492188 5.097656 C 33.714844 5.46875 33.824219 5.894531 33.816406 6.332031 C 33.816406 6.847656 33.667969 7.367188 33.375 7.800781 C 33.070312 8.253906 32.644531 8.605469 32.148438 8.820312 C 31.625 9.050781 30.960938 9.171875 30.167969 9.171875 C 28.769531 9.171875 27.800781 8.902344 27.257812 8.355469 C 26.714844 7.8125 26.394531 7.125 26.328125 6.292969 Z M 0.625 9.03125 L 0.625 0.757812 L 4.871094 0.757812 C 5.65625 0.757812 6.261719 0.824219 6.675781 0.960938 C 7.082031 1.09375 7.441406 1.359375 7.679688 1.722656 C 7.949219 2.121094 8.078125 2.582031 8.066406 3.0625 C 8.09375 3.878906 7.679688 4.65625 6.972656 5.0625 C 6.695312 5.21875 6.390625 5.332031 6.078125 5.386719 C 6.308594 5.449219 6.539062 5.5625 6.742188 5.691406 C 6.898438 5.820312 7.027344 5.96875 7.148438 6.125 C 7.285156 6.285156 7.40625 6.460938 7.503906 6.644531 L 8.738281 9.042969 L 5.847656 9.042969 L 4.484375 6.496094 C 4.308594 6.171875 4.164062 5.960938 4.023438 5.859375 C 3.839844 5.730469 3.621094 5.664062 3.398438 5.664062 L 3.175781 5.664062 L 3.175781 9.023438 L 0.625 9.023438 Z M 3.175781 4.109375 L 4.253906 4.109375 C 4.484375 4.089844 4.707031 4.054688 4.925781 4 C 5.09375 3.96875 5.242188 3.878906 5.339844 3.738281 C 5.589844 3.40625 5.554688 2.933594 5.25 2.648438 C 5.082031 2.507812 4.761719 2.433594 4.300781 2.433594 L 3.175781 2.433594 Z M 0.046875 16.121094 L 2.46875 15.964844 C 2.523438 16.363281 2.625 16.660156 2.789062 16.871094 C 3.046875 17.203125 3.425781 17.378906 3.914062 17.378906 C 4.273438 17.378906 4.558594 17.296875 4.753906 17.121094 C 4.9375 16.972656 5.046875 16.761719 5.046875 16.527344 C 5.046875 16.308594 4.945312 16.09375 4.769531 15.957031 C 4.585938 15.789062 4.152344 15.621094 3.464844 15.472656 C 2.347656 15.222656 1.546875 14.890625 1.078125 14.464844 C 0.609375 14.066406 0.339844 13.484375 0.359375 12.863281 C 0.359375 12.4375 0.488281 12.011719 0.726562 11.660156 C 1.003906 11.261719 1.382812 10.949219 1.832031 10.773438 C 2.320312 10.558594 3.003906 10.449219 3.859375 10.449219 C 4.910156 10.449219 5.710938 10.644531 6.261719 11.039062 C 6.816406 11.4375 7.136719 12.058594 7.238281 12.917969 L 4.84375 13.058594 C 4.78125 12.6875 4.652344 12.417969 4.4375 12.242188 C 4.238281 12.066406 3.949219 11.984375 3.59375 11.996094 C 3.296875 11.996094 3.078125 12.058594 2.929688 12.1875 C 2.78125 12.300781 2.699219 12.464844 2.707031 12.652344 C 2.707031 12.789062 2.78125 12.917969 2.890625 13.003906 C 3.011719 13.113281 3.296875 13.214844 3.75 13.308594 C 4.863281 13.550781 5.65625 13.789062 6.144531 14.039062 C 6.632812 14.289062 6.980469 14.59375 7.191406 14.957031 C 7.414062 15.324219 7.523438 15.75 7.523438 16.175781 C 7.523438 16.695312 7.367188 17.203125 7.082031 17.640625 C 6.777344 18.09375 6.355469 18.445312 5.855469 18.65625 C 5.332031 18.890625 4.667969 19.007812 3.878906 19.007812 C 2.476562 19.007812 1.511719 18.742188 0.96875 18.195312 C 0.425781 17.640625 0.121094 16.953125 0.046875 16.121094 Z M 0.046875 16.121094 "/>
<path style=" stroke:none;fill-rule:nonzero;fill:rgb(0%,0%,0%);fill-opacity:1;" d="M 12.292969 15.472656 L 14.523438 16.148438 C 14.402344 16.714844 14.15625 17.25 13.8125 17.722656 C 13.5 18.140625 13.085938 18.464844 12.617188 18.675781 C 12.136719 18.890625 11.53125 19 10.792969 19 C 9.898438 19 9.164062 18.871094 8.601562 18.609375 C 8.03125 18.351562 7.542969 17.890625 7.128906 17.230469 C 6.714844 16.574219 6.511719 15.734375 6.511719 14.707031 C 6.511719 13.335938 6.871094 12.28125 7.597656 11.550781 C 8.324219 10.820312 9.347656 10.449219 10.671875 10.449219 C 11.714844 10.449219 12.523438 10.660156 13.125 11.078125 C 13.710938 11.503906 14.15625 12.152344 14.449219 13.019531 L 12.203125 13.519531 C 12.148438 13.328125 12.0625 13.132812 11.953125 12.964844 C 11.816406 12.773438 11.640625 12.625 11.429688 12.511719 C 11.21875 12.402344 10.976562 12.355469 10.738281 12.355469 C 10.15625 12.355469 9.714844 12.585938 9.410156 13.058594 C 9.183594 13.402344 9.0625 13.945312 9.0625 14.6875 C 9.0625 15.601562 9.199219 16.234375 9.476562 16.574219 C 9.753906 16.917969 10.140625 17.085938 10.644531 17.085938 C 11.132812 17.085938 11.503906 16.945312 11.75 16.675781 C 12 16.390625 12.183594 15.992188 12.292969 15.472656 Z M 17.496094 10.585938 L 20.039062 10.585938 L 20.039062 13.484375 L 22.820312 13.484375 L 22.820312 10.585938 L 25.378906 10.585938 L 25.378906 18.859375 L 22.820312 18.859375 L 22.820312 15.511719 L 20.039062 15.511719 L 20.039062 18.859375 L 17.496094 18.859375 Z M 17.496094 10.585938 "/>
<path style=" stroke:none;fill-rule:nonzero;fill:rgb(0%,0%,0%);fill-opacity:1;" d="M 25.03125 14.722656 C 25.03125 13.375 25.40625 12.316406 26.152344 11.570312 C 26.898438 10.820312 27.949219 10.4375 29.285156 10.4375 C 30.65625 10.4375 31.707031 10.808594 32.453125 11.550781 C 33.199219 12.289062 33.566406 13.328125 33.566406 14.660156 C 33.566406 15.632812 33.402344 16.417969 33.078125 17.039062 C 32.765625 17.648438 32.277344 18.148438 31.679688 18.480469 C 31.0625 18.824219 30.296875 19 29.386719 19 C 28.457031 19 27.691406 18.851562 27.082031 18.554688 C 26.457031 18.242188 25.941406 17.75 25.601562 17.148438 C 25.222656 16.5 25.03125 15.695312 25.03125 14.722656 Z M 27.570312 14.734375 C 27.570312 15.566406 27.730469 16.167969 28.03125 16.539062 C 28.335938 16.898438 28.761719 17.085938 29.292969 17.085938 C 29.835938 17.085938 30.261719 16.910156 30.566406 16.546875 C 30.867188 16.1875 31.015625 15.546875 31.015625 14.621094 C 31.015625 13.84375 30.859375 13.269531 30.546875 12.917969 C 30.234375 12.558594 29.808594 12.382812 29.277344 12.382812 C 28.804688 12.363281 28.355469 12.566406 28.042969 12.929688 C 27.730469 13.289062 27.570312 13.890625 27.570312 14.734375 Z M 36.171875 14.722656 C 36.171875 13.375 36.550781 12.316406 37.296875 11.570312 C 38.042969 10.820312 39.09375 10.4375 40.425781 10.4375 C 41.800781 10.4375 42.859375 10.808594 43.59375 11.550781 C 44.332031 12.289062 44.710938 13.328125 44.710938 14.660156 C 44.710938 15.632812 44.542969 16.417969 44.222656 17.039062 C 43.910156 17.648438 43.421875 18.148438 42.820312 18.480469 C 42.203125 18.824219 41.441406 19 40.527344 19 C 39.597656 19 38.835938 18.851562 38.226562 18.554688 C 37.601562 18.242188 37.085938 17.75 36.742188 17.148438 C 36.367188 16.5 36.171875 15.695312 36.171875 14.722656 Z M 38.714844 14.734375 C 38.714844 15.566406 38.871094 16.167969 39.175781 16.539062 C 39.480469 16.898438 39.902344 17.085938 40.4375 17.085938 C 40.980469 17.085938 41.402344 16.910156 41.707031 16.546875 C 42.011719 16.1875 42.160156 15.546875 42.160156 14.621094 C 42.160156 13.84375 42.003906 13.269531 41.6875 12.917969 C 41.375 12.558594 40.953125 12.382812 40.417969 12.382812 C 39.949219 12.363281 39.488281 12.566406 39.183594 12.929688 C 38.871094 13.289062 38.714844 13.890625 38.714844 14.734375 Z M 38.714844 14.734375 "/>
<path style=" stroke:none;fill-rule:nonzero;fill:rgb(0%,0%,0%);fill-opacity:1;" d="M 44.441406 10.585938 L 46.984375 10.585938 L 46.984375 16.824219 L 50.953125 16.824219 L 50.953125 18.859375 L 44.433594 18.859375 L 44.433594 10.585938 Z M 44.441406 10.585938 "/>
<path style=" stroke:none;fill-rule:nonzero;fill:rgb(100%,100%,100%);fill-opacity:1;" d="M 43.402344 2.773438 C 41.816406 0.65625 38.457031 0.515625 35.898438 2.453125 C 33.339844 4.390625 32.550781 7.675781 34.136719 9.789062 C 35.722656 11.90625 39.082031 12.046875 41.640625 10.109375 C 44.199219 8.171875 44.988281 4.886719 43.402344 2.773438 Z M 43.402344 2.773438 "/>
<g clip-path="url(#clip1)" clip-rule="nonzero">
<g clip-path="url(#clip2)" clip-rule="nonzero">
<path style=" stroke:none;fill-rule:nonzero;fill:rgb(100%,100%,100%);fill-opacity:1;" d="M 27.609375 5.234375 L 40.835938 -4.78125 L 49.984375 7.421875 L 36.761719 17.433594 Z M 27.609375 5.234375 "/>
<g clip-path="url(#clip3)" clip-rule="nonzero">
<path style=" stroke:none;fill-rule:nonzero;fill:rgb(100%,100%,100%);fill-opacity:1;" d="M 43.402344 2.773438 C 41.816406 0.65625 38.457031 0.515625 35.898438 2.453125 C 33.339844 4.390625 32.550781 7.675781 34.136719 9.789062 C 35.722656 11.90625 39.082031 12.046875 41.640625 10.109375 C 44.199219 8.171875 44.988281 4.886719 43.402344 2.773438 Z M 43.402344 2.773438 "/>
<g clip-path="url(#clip4)" clip-rule="nonzero">
<path style=" stroke:none;fill-rule:nonzero;fill:rgb(100%,100%,100%);fill-opacity:1;" d="M 31.292969 6.046875 L 40.554688 -0.964844 L 46.300781 6.699219 L 37.039062 13.710938 Z M 31.292969 6.046875 "/>
<g clip-path="url(#clip5)" clip-rule="nonzero">
<path style="fill-rule:nonzero;fill:rgb(100%,100%,100%);fill-opacity:1;stroke-width:4;stroke-linecap:butt;stroke-linejoin:miter;stroke:rgb(0%,0%,0%);stroke-opacity:1;stroke-miterlimit:10;" d="M 483.480803 67.899367 C 483.495022 39.264888 455.276077 16.096983 420.487845 16.09527 C 385.699613 16.093556 357.493539 39.285599 357.504722 67.88637 C 357.490504 96.520849 385.709448 119.688754 420.49768 119.690467 C 455.285912 119.69218 483.491987 96.500137 483.480803 67.899367 Z M 483.480803 67.899367 " transform="matrix(0.073545,-0.0556978,0.0554221,0.0739107,4.081646,24.683743)"/>
</g>
</g>
</g>
</g>
</g>
<g clip-path="url(#clip6)" clip-rule="nonzero">
<g clip-path="url(#clip7)" clip-rule="nonzero">
<g clip-path="url(#clip8)" clip-rule="nonzero">
<g clip-path="url(#clip9)" clip-rule="nonzero">
<g clip-path="url(#clip10)" clip-rule="nonzero">
<path style="fill:none;stroke-width:4;stroke-linecap:butt;stroke-linejoin:miter;stroke:rgb(0%,0%,0%);stroke-opacity:1;stroke-miterlimit:10;" d="M 357.800341 16.991802 L 483.717144 17.010781 L 483.711861 120.698924 L 357.795057 120.679944 Z M 357.800341 16.991802 " transform="matrix(0.0735459,-0.0556965,0.0554208,0.0739117,4.036515,24.719198)"/>
</g>
</g>
</g>
</g>
</g>
<g clip-path="url(#clip11)" clip-rule="nonzero">
<g clip-path="url(#clip12)" clip-rule="nonzero">
<g clip-path="url(#clip13)" clip-rule="nonzero">
<g clip-path="url(#clip14)" clip-rule="nonzero">
<path style="fill:none;stroke-width:4;stroke-linecap:butt;stroke-linejoin:miter;stroke:rgb(0%,0%,0%);stroke-opacity:1;stroke-miterlimit:10;" d="M 483.480803 67.899367 C 483.495022 39.264888 455.276077 16.096983 420.487845 16.09527 C 385.699613 16.093556 357.493539 39.285599 357.504722 67.88637 C 357.490504 96.520849 385.709448 119.688754 420.49768 119.690467 C 455.285912 119.69218 483.491987 96.500137 483.480803 67.899367 Z M 483.480803 67.899367 " transform="matrix(0.073545,-0.0556978,0.0554221,0.0739107,4.081646,24.683743)"/>
<path style=" stroke:none;fill-rule:nonzero;fill:rgb(100%,100%,100%);fill-opacity:1;" d="M 31.292969 6.046875 L 40.554688 -0.964844 L 46.300781 6.699219 L 37.039062 13.710938 Z M 31.292969 6.046875 "/>
<g clip-path="url(#clip15)" clip-rule="nonzero">
<path style="fill-rule:nonzero;fill:rgb(100%,100%,100%);fill-opacity:1;stroke-width:4;stroke-linecap:butt;stroke-linejoin:miter;stroke:rgb(0%,0%,0%);stroke-opacity:1;stroke-miterlimit:10;" d="M 483.480803 67.899367 C 483.495022 39.264888 455.276077 16.096983 420.487845 16.09527 C 385.699613 16.093556 357.493539 39.285599 357.504722 67.88637 C 357.490504 96.520849 385.709448 119.688754 420.49768 119.690467 C 455.285912 119.69218 483.491987 96.500137 483.480803 67.899367 Z M 483.480803 67.899367 " transform="matrix(0.073545,-0.0556978,0.0554221,0.0739107,4.081646,24.683743)"/>
</g>
</g>
</g>
</g>
</g>
<g clip-path="url(#clip16)" clip-rule="nonzero">
<g clip-path="url(#clip17)" clip-rule="nonzero">
<g clip-path="url(#clip18)" clip-rule="nonzero">
<g clip-path="url(#clip19)" clip-rule="nonzero">
<g clip-path="url(#clip20)" clip-rule="nonzero">
<path style="fill:none;stroke-width:4;stroke-linecap:butt;stroke-linejoin:miter;stroke:rgb(0%,0%,0%);stroke-opacity:1;stroke-miterlimit:10;" d="M 357.800341 16.991802 L 483.717144 17.010781 L 483.711861 120.698924 L 357.795057 120.679944 Z M 357.800341 16.991802 " transform="matrix(0.0735459,-0.0556965,0.0554208,0.0739117,4.036515,24.719198)"/>
</g>
</g>
</g>
</g>
</g>
<g clip-path="url(#clip21)" clip-rule="nonzero">
<g clip-path="url(#clip22)" clip-rule="nonzero">
<g clip-path="url(#clip23)" clip-rule="nonzero">
<g clip-path="url(#clip24)" clip-rule="nonzero">
<path style="fill:none;stroke-width:4;stroke-linecap:butt;stroke-linejoin:miter;stroke:rgb(0%,0%,0%);stroke-opacity:1;stroke-miterlimit:10;" d="M 330.873744 -14.19696 L 510.708918 -14.186251 L 510.690718 150.906279 L 330.914822 150.887391 Z M 330.873744 -14.19696 " transform="matrix(0.073545,-0.0556978,0.0554221,0.0739107,4.062107,24.712609)"/>
</g>
</g>
</g>
</g>
<g clip-path="url(#clip25)" clip-rule="nonzero">
<g clip-path="url(#clip26)" clip-rule="nonzero">
<g clip-path="url(#clip27)" clip-rule="nonzero">
<path style="fill:none;stroke-width:4;stroke-linecap:butt;stroke-linejoin:miter;stroke:rgb(0%,0%,0%);stroke-opacity:1;stroke-miterlimit:10;" d="M 483.480803 67.899367 C 483.495022 39.264888 455.276077 16.096983 420.487845 16.09527 C 385.699613 16.093556 357.493539 39.285599 357.504722 67.88637 C 357.490504 96.520849 385.709448 119.688754 420.49768 119.690467 C 455.285912 119.69218 483.491987 96.500137 483.480803 67.899367 Z M 483.480803 67.899367 " transform="matrix(0.073545,-0.0556978,0.0554221,0.0739107,4.081646,24.683743)"/>
</g>
</g>
</g>
<g clip-path="url(#clip28)" clip-rule="nonzero">
<g clip-path="url(#clip29)" clip-rule="nonzero">
<g clip-path="url(#clip30)" clip-rule="nonzero">
<path style=" stroke:none;fill-rule:nonzero;fill:rgb(0%,0%,0%);fill-opacity:1;" d="M 36.183594 5.671875 L 37.101562 5.023438 L 38.234375 6.644531 C 38.429688 6.902344 38.578125 7.183594 38.6875 7.488281 C 38.75 7.71875 38.734375 7.96875 38.640625 8.191406 C 38.519531 8.46875 38.328125 8.699219 38.070312 8.867188 C 37.765625 9.078125 37.507812 9.199219 37.289062 9.234375 C 37.074219 9.273438 36.855469 9.234375 36.652344 9.144531 C 36.429688 9.03125 36.238281 8.875 36.089844 8.671875 L 36.882812 7.929688 C 36.945312 8.03125 37.03125 8.125 37.121094 8.199219 C 37.1875 8.246094 37.261719 8.273438 37.34375 8.273438 C 37.40625 8.273438 37.472656 8.246094 37.519531 8.207031 C 37.609375 8.152344 37.675781 8.042969 37.664062 7.929688 C 37.636719 7.773438 37.574219 7.617188 37.472656 7.496094 Z M 38.945312 6.699219 L 39.78125 6.035156 C 39.875 6.144531 39.996094 6.226562 40.125 6.273438 C 40.308594 6.332031 40.5 6.292969 40.65625 6.171875 C 40.769531 6.097656 40.859375 5.996094 40.898438 5.867188 C 40.953125 5.699219 40.859375 5.515625 40.695312 5.460938 C 40.667969 5.449219 40.640625 5.441406 40.613281 5.441406 C 40.5 5.433594 40.308594 5.480469 40.023438 5.597656 C 39.554688 5.792969 39.183594 5.867188 38.910156 5.839844 C 38.640625 5.8125 38.390625 5.671875 38.246094 5.441406 C 38.132812 5.285156 38.078125 5.097656 38.070312 4.914062 C 38.070312 4.703125 38.125 4.488281 38.246094 4.3125 C 38.421875 4.0625 38.632812 3.851562 38.890625 3.683594 C 39.277344 3.414062 39.617188 3.285156 39.910156 3.285156 C 40.207031 3.285156 40.484375 3.425781 40.742188 3.710938 L 39.910156 4.367188 C 39.746094 4.15625 39.433594 4.109375 39.222656 4.277344 L 39.195312 4.304688 C 39.101562 4.359375 39.039062 4.441406 39 4.542969 C 38.972656 4.617188 38.992188 4.703125 39.039062 4.765625 C 39.074219 4.8125 39.128906 4.847656 39.195312 4.847656 C 39.265625 4.859375 39.394531 4.820312 39.582031 4.738281 C 40.039062 4.542969 40.390625 4.433594 40.628906 4.394531 C 40.832031 4.359375 41.042969 4.378906 41.238281 4.460938 C 41.414062 4.535156 41.558594 4.664062 41.660156 4.820312 C 41.789062 5.007812 41.863281 5.230469 41.875 5.460938 C 41.882812 5.699219 41.816406 5.933594 41.6875 6.136719 C 41.523438 6.386719 41.3125 6.597656 41.0625 6.765625 C 40.554688 7.117188 40.140625 7.265625 39.8125 7.210938 C 39.453125 7.152344 39.15625 6.96875 38.945312 6.699219 Z M 38.945312 6.699219 "/>
</g>
</g>
</g>
</g>
</svg>
